<svg xmlns="http://www.w3.org/2000/svg" xmlns:xlink="http://www.w3.org/1999/xlink" width="2000" zoomAndPan="magnify" viewBox="0 0 1500 1499.999933" height="2000" preserveAspectRatio="xMidYMid meet" version="1.0"><defs><g/><clipPath id="7f8ab41e28"><path d="M 1209.855469 808.410156 L 1240.601562 808.410156 L 1240.601562 839.15625 L 1209.855469 839.15625 Z M 1209.855469 808.410156 " clip-rule="nonzero"/></clipPath><clipPath id="006a94954b"><path d="M 1225.230469 808.410156 C 1216.738281 808.410156 1209.855469 815.292969 1209.855469 823.785156 C 1209.855469 832.273438 1216.738281 839.15625 1225.230469 839.15625 C 1233.71875 839.15625 1240.601562 832.273438 1240.601562 823.785156 C 1240.601562 815.292969 1233.71875 808.410156 1225.230469 808.410156 Z M 1225.230469 808.410156 " clip-rule="nonzero"/></clipPath><clipPath id="e36211dae6"><path d="M 595.019531 816.097656 L 1191.152344 816.097656 L 1191.152344 831.472656 L 595.019531 831.472656 Z M 595.019531 816.097656 " clip-rule="nonzero"/></clipPath><clipPath id="313ffdbd76"><path d="M 600.269531 816.097656 L 1185.855469 816.097656 C 1188.753906 816.097656 1191.105469 818.449219 1191.105469 821.347656 L 1191.105469 826.222656 C 1191.105469 829.121094 1188.753906 831.472656 1185.855469 831.472656 L 600.269531 831.472656 C 597.367188 831.472656 595.019531 829.121094 595.019531 826.222656 L 595.019531 821.347656 C 595.019531 818.449219 597.367188 816.097656 600.269531 816.097656 Z M 600.269531 816.097656 " clip-rule="nonzero"/></clipPath></defs><rect x="-150" width="1800" fill="#ffffff" y="-149.999993" height="1799.99992" fill-opacity="1"/><rect x="-150" width="1800" fill="#ffffff" y="-149.999993" height="1799.99992" fill-opacity="1"/><g clip-path="url(#7f8ab41e28)"><g clip-path="url(#006a94954b)"><path fill="#000000" d="M 1209.855469 808.410156 L 1240.601562 808.410156 L 1240.601562 839.15625 L 1209.855469 839.15625 Z M 1209.855469 808.410156 " fill-opacity="1" fill-rule="nonzero"/></g></g><g clip-path="url(#e36211dae6)"><g clip-path="url(#313ffdbd76)"><path fill="#000000" d="M 595.019531 816.097656 L 1191.09375 816.097656 L 1191.09375 831.472656 L 595.019531 831.472656 Z M 595.019531 816.097656 " fill-opacity="1" fill-rule="nonzero"/></g></g><g fill="#000000" fill-opacity="1"><g transform="translate(524.6565, 761.244706)"><g><path d="M 6.703125 -53.15625 C 6.703125 -68.96875 11.828125 -82.265625 22.078125 -93.046875 C 32.265625 -103.785156 45.410156 -109.15625 61.515625 -109.15625 C 77.472656 -109.15625 90.546875 -103.785156 100.734375 -93.046875 C 110.921875 -82.359375 116.015625 -69.0625 116.015625 -53.15625 C 116.015625 -37.300781 110.921875 -24.101562 100.734375 -13.5625 C 90.546875 -2.976562 77.472656 2.3125 61.515625 2.3125 C 45.460938 2.3125 32.316406 -2.976562 22.078125 -13.5625 C 11.828125 -24.207031 6.703125 -37.40625 6.703125 -53.15625 Z M 25.796875 -53.15625 C 25.796875 -42.320312 29.097656 -33.425781 35.703125 -26.46875 C 42.316406 -19.507812 50.867188 -16.03125 61.359375 -16.03125 C 71.796875 -16.03125 80.320312 -19.507812 86.9375 -26.46875 C 93.601562 -33.53125 96.9375 -42.425781 96.9375 -53.15625 C 96.9375 -63.945312 93.601562 -72.945312 86.9375 -80.15625 C 80.28125 -87.3125 71.753906 -90.890625 61.359375 -90.890625 C 50.972656 -90.890625 42.453125 -87.3125 35.796875 -80.15625 C 29.128906 -72.945312 25.796875 -63.945312 25.796875 -53.15625 Z M 25.796875 -53.15625 "/></g></g></g><g fill="#000000" fill-opacity="1"><g transform="translate(647.230266, 761.244706)"><g><path d="M 75.609375 0 L 39.21875 -46.078125 C 35.882812 -44.484375 32.128906 -42.96875 27.953125 -41.53125 L 27.953125 0 L 8.875 0 L 8.875 -106.921875 L 27.953125 -106.921875 L 27.953125 -62.328125 C 38.992188 -66.003906 48.863281 -71.972656 57.5625 -80.234375 C 66.363281 -88.578125 72.179688 -97.472656 75.015625 -106.921875 L 95.140625 -106.921875 C 90.066406 -86.492188 77.09375 -69.320312 56.21875 -55.40625 L 99.84375 0 Z M 75.609375 0 "/></g></g></g><g fill="#000000" fill-opacity="1"><g transform="translate(748.853151, 761.244706)"><g><path d="M 6.703125 -53.15625 C 6.703125 -68.96875 11.828125 -82.265625 22.078125 -93.046875 C 32.265625 -103.785156 45.410156 -109.15625 61.515625 -109.15625 C 77.472656 -109.15625 90.546875 -103.785156 100.734375 -93.046875 C 110.921875 -82.359375 116.015625 -69.0625 116.015625 -53.15625 C 116.015625 -37.300781 110.921875 -24.101562 100.734375 -13.5625 C 90.546875 -2.976562 77.472656 2.3125 61.515625 2.3125 C 45.460938 2.3125 32.316406 -2.976562 22.078125 -13.5625 C 11.828125 -24.207031 6.703125 -37.40625 6.703125 -53.15625 Z M 25.796875 -53.15625 C 25.796875 -42.320312 29.097656 -33.425781 35.703125 -26.46875 C 42.316406 -19.507812 50.867188 -16.03125 61.359375 -16.03125 C 71.796875 -16.03125 80.320312 -19.507812 86.9375 -26.46875 C 93.601562 -33.53125 96.9375 -42.425781 96.9375 -53.15625 C 96.9375 -63.945312 93.601562 -72.945312 86.9375 -80.15625 C 80.28125 -87.3125 71.753906 -90.890625 61.359375 -90.890625 C 50.972656 -90.890625 42.453125 -87.3125 35.796875 -80.15625 C 29.128906 -72.945312 25.796875 -63.945312 25.796875 -53.15625 Z M 25.796875 -53.15625 "/></g></g></g><g fill="#000000" fill-opacity="1"><g transform="translate(871.426917, 761.244706)"><g><path d="M 8.875 0 L 8.875 -106.921875 L 27.953125 -106.921875 L 27.953125 -18.34375 L 83.953125 -18.34375 L 83.953125 0 Z M 8.875 0 "/></g></g></g><g fill="#000000" fill-opacity="1"><g transform="translate(959.181991, 761.244706)"><g><path d="M 1.859375 0 L 45.1875 -106.921875 L 67.78125 -106.921875 L 111.328125 0 L 90.375 0 L 79.5625 -26.84375 L 33.484375 -26.84375 L 22.59375 0 Z M 40.78125 -45.1875 L 72.25 -45.1875 L 56.515625 -84.109375 Z M 40.78125 -45.1875 "/></g></g></g><g fill="#000000" fill-opacity="1"><g transform="translate(1072.28687, 761.244706)"><g><path d="M 8.875 0 L 8.875 -106.921875 L 66.875 -106.921875 C 80.394531 -102.453125 87.15625 -92.660156 87.15625 -77.546875 C 87.15625 -68.941406 83.953125 -61.882812 77.546875 -56.375 C 81.367188 -54.082031 84.625 -50.578125 87.3125 -45.859375 C 90 -41.085938 91.34375 -35.890625 91.34375 -30.265625 C 91.34375 -22.960938 89.5 -16.722656 85.8125 -11.546875 C 82.132812 -6.378906 77.238281 -2.53125 71.125 0 Z M 27.953125 -63.671875 L 60.015625 -63.671875 C 65.835938 -65.859375 68.75 -70.085938 68.75 -76.359375 C 68.75 -82.867188 65.835938 -87.09375 60.015625 -89.03125 L 27.953125 -89.03125 Z M 27.953125 -17.890625 L 61.65625 -17.890625 C 64.539062 -18.929688 66.90625 -20.671875 68.75 -23.109375 C 70.539062 -25.492188 71.4375 -28.476562 71.4375 -32.0625 C 71.4375 -35.644531 70.539062 -38.648438 68.75 -41.078125 C 66.851562 -43.660156 64.488281 -45.398438 61.65625 -46.296875 L 27.953125 -46.296875 Z M 27.953125 -17.890625 "/></g></g></g><g fill="#000000" fill-opacity="1"><g transform="translate(1168.019666, 761.244706)"><g><path d="M 21.703125 -36.984375 C 26.171875 -23.015625 35.390625 -16.03125 49.359375 -16.03125 C 56.015625 -16.03125 61.285156 -17.5 65.171875 -20.4375 C 69.140625 -23.414062 71.125 -27.289062 71.125 -32.0625 C 71.125 -33.300781 70.976562 -34.367188 70.6875 -35.265625 L 14.84375 -60.46875 C 10.863281 -65.488281 8.875 -71.503906 8.875 -78.515625 C 8.875 -87.660156 12.425781 -95.039062 19.53125 -100.65625 C 26.6875 -106.320312 35.707031 -109.15625 46.59375 -109.15625 C 55.84375 -109.15625 63.875 -106.941406 70.6875 -102.515625 C 77.539062 -98.097656 82.484375 -92.007812 85.515625 -84.25 L 67.78125 -76.65625 C 63.800781 -86.144531 56.691406 -90.890625 46.453125 -90.890625 C 41.378906 -90.890625 37.078125 -89.820312 33.546875 -87.6875 C 29.921875 -85.5 28.109375 -82.488281 28.109375 -78.65625 C 28.109375 -76.914062 28.359375 -75.523438 28.859375 -74.484375 L 85.375 -49.953125 C 88.707031 -45.234375 90.375 -39.46875 90.375 -32.65625 C 90.375 -22.269531 86.59375 -13.84375 79.03125 -7.375 C 71.476562 -0.914062 61.515625 2.3125 49.140625 2.3125 C 37.453125 2.3125 27.609375 -0.671875 19.609375 -6.640625 C 11.609375 -12.597656 6.238281 -20.820312 3.5 -31.3125 Z M 21.703125 -36.984375 "/></g></g></g><g fill="#000000" fill-opacity="1"><g transform="translate(244.269022, 829.874909)"><g><path d="M 142.09375 -221.84375 L 142.09375 -95.984375 L 220.109375 -162.109375 L 334.078125 0 L 200.09375 0 L 142.09375 -91.640625 L 142.09375 0 L 16.234375 0 L 16.234375 -221.84375 Z M 287.09375 -221.84375 L 287.09375 -219.53125 L 220.109375 -162.40625 L 178.9375 -221.84375 Z M 287.09375 -221.84375 "/></g></g></g></svg>